<?xml version="1.0" encoding="UTF-8" standalone="no"?>
<svg
   xmlns:dc="http://purl.org/dc/elements/1.1/"
   xmlns:cc="http://creativecommons.org/ns#"
   xmlns:rdf="http://www.w3.org/1999/02/22-rdf-syntax-ns#"
   xmlns:svg="http://www.w3.org/2000/svg"
   xmlns="http://www.w3.org/2000/svg"
   id="svg24"
   xml:space="preserve"
   width="512px"
   viewBox="0 0 512 512"
   version="1.1"
   height="512px"
   enable-background="new 0 0 512 512"><metadata
     id="metadata30"><rdf:RDF><cc:Work
         rdf:about=""><dc:format>image/svg+xml</dc:format><dc:type
           rdf:resource="http://purl.org/dc/dcmitype/StillImage" /></cc:Work></rdf:RDF></metadata><defs
     id="defs28" /><g
     id="g22"><g
       id="apple_logo"><g
         id="g19"><path
           id="path2"
           fill-rule="evenodd"
           d="M390.056,199.288c-25.229,17.69-39.653,41.094-37.537,72.883      c2.111,31.742,19.156,53.183,46.855,67.062c-1.135,3.213-2.251,6.596-3.513,9.944c-6.184,16.35-14.446,31.56-24.503,45.808      c-4.636,6.549-9.241,13.098-14.62,19.065c-5.325,5.926-11.177,11.176-18.329,14.801c-6.305,3.205-12.966,4.567-20.001,4.317      c-7.681-0.28-14.84-2.506-21.818-5.584c-5.12-2.26-10.218-4.562-15.613-6.104c-8.584-2.438-17.304-2.928-26.14-1.924      c-7.552,0.874-14.647,3.272-21.589,6.263c-5.34,2.307-10.638,4.703-16.304,6.139c-5.064,1.277-10.188,1.994-15.421,1.511      c-5.938-0.54-11.326-2.731-16.344-5.885c-6.836-4.29-12.555-9.881-17.737-16.02c-22.821-27.09-38.921-57.723-47.628-92.264      c-2.426-9.643-4.276-19.372-5.348-29.271c-1.223-11.256-1.466-22.532-0.388-33.809c1.457-15.258,5.15-29.881,12.319-43.488      c10.164-19.26,25.057-33.347,45.088-41.674c9.861-4.088,20.167-6.064,30.825-5.975c7.213,0.051,14.196,1.585,20.974,3.999      c6.696,2.403,13.283,5.104,19.957,7.544c3.323,1.23,6.712,2.29,10.121,3.229c4.923,1.347,9.772,0.563,14.461-1.155      c6.184-2.24,12.322-4.658,18.478-7.008c6.16-2.371,12.381-4.473,18.819-5.934c7.215-1.666,14.484-2.067,21.872-1.523      c11.334,0.848,22.184,3.505,32.438,8.479c12.312,5.985,22.396,14.637,30.218,25.977      C389.81,198.919,389.962,199.147,390.056,199.288z"
           clip-rule="evenodd" /><path
           id="path4"
           opacity="0.3"
           fill-rule="evenodd"
           fill="#FFFFFF"
           d="M254.742,195.88      c0.777-5.993,1.044-9.995,0.072-15.792c-0.739-0.111-1.478-0.251-2.22-0.455c-3.408-0.94-6.798-2-10.121-3.229      c-6.673-2.44-13.26-5.141-19.957-7.544c-6.778-2.413-13.76-3.947-20.974-3.998c-10.658-0.09-20.963,1.887-30.825,5.975      c-20.031,8.327-34.924,22.414-45.088,41.674c-7.169,13.607-10.863,28.229-12.319,43.487c-1.079,11.278,1.573,22.549,0.388,33.81      c-1.073,10.189,16.275,57.917,18.363,66.638c1.88,0.072,2.279,1.216,3.787,0.059C184.138,319.465,246.312,260.94,254.742,195.88      z"
           clip-rule="evenodd" /><path
           id="path6"
           opacity="0.1"
           fill-rule="evenodd"
           fill="#FFFFFF"
           d="M187.637,165.98      c-5.765,0.972-11.414,2.574-16.918,4.855c-20.031,8.327-34.924,22.414-45.088,41.674c-7.169,13.607-10.863,28.229-12.319,43.487      c-1.079,11.278-0.835,22.553,0.388,33.81c1.071,9.898,2.921,19.628,5.348,29.271c1.452,5.758,3.128,11.399,4.988,16.944      c2.234,0.972,4.55,1.667,6.951,2.022c27.799,4.102,61.094-36.8,74.328-86.715C216.167,210.389,204.643,182.046,187.637,165.98z"
           clip-rule="evenodd" /><path
           id="path8"
           fill-rule="evenodd"
           d="M326.426,78.395c0.082,2.65,0.329,5.284,0.218,7.911      c-0.83,21.84-9.475,40.155-24.794,55.319c-7.278,7.201-15.864,12.471-25.561,15.794c-6.324,2.164-12.825,3.191-19.524,2.856      c-0.685-0.039-0.863-0.281-0.939-0.947c-1.284-12.019,1.275-23.324,6.195-34.166c10.107-22.236,26.974-36.74,49.875-44.252      c4.156-1.346,8.421-2.164,12.778-2.509C325.195,78.355,325.714,78.395,326.426,78.395z"
           clip-rule="evenodd" /><path
           id="path10"
           opacity="0.3"
           fill-rule="evenodd"
           fill="#FFFFFF"
           d="M311.129,80.688      c-22.901,7.512-39.768,22.016-49.875,44.252c-4.869,10.731-7.413,21.917-6.221,33.797c13.592-4.403,29.955-15.687,43.19-30.993      c14.46-16.723,22.022-34.523,23.438-49.326C318.083,78.843,314.567,79.576,311.129,80.688z"
           clip-rule="evenodd" /><linearGradient
           y2="166.957"
           y1="240.418"
           x2="315.8027"
           x1="315.8027"
           id="SVGID_1_"
           gradientUnits="userSpaceOnUse"><stop
             id="stop12"
             style="stop-color:#231F20;stop-opacity:0"
             offset="0.0427" /><stop
             id="stop14"
             style="stop-color:#FFFFFF;stop-opacity:0.8"
             offset="0.9304" /></linearGradient><path
           id="path17"
           fill-rule="evenodd"
           fill="url(#SVGID_1_)"
           d="M283.673,176.313c0,0,27.649-13.172,51.91-8.259      c31.069,6.292,41.293,24.776,41.293,24.776l-23.597,41.687l-98.55,5.9L283.673,176.313z"
           clip-rule="evenodd" /></g></g></g></svg>